G04 Layer: TopSolderMaskLayer*
G04 EasyEDA v6.4.7, 2021-05-23T18:21:04+05:00*
G04 4ba805003f7d4cf790364f2a1c8dc171,d3277c0307964fb6908111913dbd2705,10*
G04 Gerber Generator version 0.2*
G04 Scale: 100 percent, Rotated: No, Reflected: No *
G04 Dimensions in inches *
G04 leading zeros omitted , absolute positions ,2 integer and 4 decimal *
%FSLAX24Y24*%
%MOIN*%
G90*
D02*

%ADD33C,0.068000*%
%ADD34C,0.082740*%
%ADD41C,0.070929*%

%LPD*%
G54D33*
G01X6150Y22193D02*
G01X6150Y22006D01*
G01X7150Y22193D02*
G01X7150Y22006D01*
G01X8150Y22193D02*
G01X8150Y22006D01*
G01X9150Y22193D02*
G01X9150Y22006D01*
G01X10150Y22193D02*
G01X10150Y22006D01*
G01X11150Y22193D02*
G01X11150Y22006D01*
G54D34*
G01X3337Y17979D02*
G01X2313Y17979D01*
G01X2313Y20420D02*
G01X3337Y20420D01*
G01X974Y18648D02*
G01X974Y19672D01*
G36*
G01X14826Y16948D02*
G01X14826Y17519D01*
G01X15573Y17519D01*
G01X15573Y16948D01*
G01X14826Y16948D01*
G37*
G36*
G01X14826Y18680D02*
G01X14826Y19252D01*
G01X15573Y19252D01*
G01X15573Y18680D01*
G01X14826Y18680D01*
G37*
G36*
G01X6973Y15394D02*
G01X6973Y16105D01*
G01X7490Y16105D01*
G01X7490Y15394D01*
G01X6973Y15394D01*
G37*
G36*
G01X5809Y15394D02*
G01X5809Y16105D01*
G01X6326Y16105D01*
G01X6326Y15394D01*
G01X5809Y15394D01*
G37*
G36*
G01X3859Y12244D02*
G01X3859Y12955D01*
G01X4376Y12955D01*
G01X4376Y12244D01*
G01X3859Y12244D01*
G37*
G36*
G01X5023Y12244D02*
G01X5023Y12955D01*
G01X5540Y12955D01*
G01X5540Y12244D01*
G01X5023Y12244D01*
G37*
G36*
G01X6894Y13523D02*
G01X6894Y14040D01*
G01X7605Y14040D01*
G01X7605Y13523D01*
G01X6894Y13523D01*
G37*
G36*
G01X6894Y12359D02*
G01X6894Y12876D01*
G01X7605Y12876D01*
G01X7605Y12359D01*
G01X6894Y12359D01*
G37*
G36*
G01X1923Y12244D02*
G01X1923Y12955D01*
G01X2440Y12955D01*
G01X2440Y12244D01*
G01X1923Y12244D01*
G37*
G36*
G01X759Y12244D02*
G01X759Y12955D01*
G01X1276Y12955D01*
G01X1276Y12244D01*
G01X759Y12244D01*
G37*
G36*
G01X9085Y5236D02*
G01X9085Y5663D01*
G01X10818Y5663D01*
G01X10818Y5236D01*
G01X9085Y5236D01*
G37*
G36*
G01X9085Y3236D02*
G01X9085Y3663D01*
G01X10818Y3663D01*
G01X10818Y3236D01*
G01X9085Y3236D01*
G37*
G36*
G01X13344Y2350D02*
G01X13344Y6550D01*
G01X16351Y6550D01*
G01X16351Y2350D01*
G01X13344Y2350D01*
G37*
G36*
G01X9085Y9786D02*
G01X9085Y10213D01*
G01X10818Y10213D01*
G01X10818Y9786D01*
G01X9085Y9786D01*
G37*
G36*
G01X9085Y7786D02*
G01X9085Y8213D01*
G01X10818Y8213D01*
G01X10818Y7786D01*
G01X9085Y7786D01*
G37*
G36*
G01X13344Y6900D02*
G01X13344Y11100D01*
G01X16351Y11100D01*
G01X16351Y6900D01*
G01X13344Y6900D01*
G37*
G36*
G01X9085Y14286D02*
G01X9085Y14713D01*
G01X10818Y14713D01*
G01X10818Y14286D01*
G01X9085Y14286D01*
G37*
G36*
G01X9085Y12286D02*
G01X9085Y12713D01*
G01X10818Y12713D01*
G01X10818Y12286D01*
G01X9085Y12286D01*
G37*
G36*
G01X13344Y11400D02*
G01X13344Y15600D01*
G01X16351Y15600D01*
G01X16351Y11400D01*
G01X13344Y11400D01*
G37*
G36*
G01X8644Y894D02*
G01X8644Y1605D01*
G01X9355Y1605D01*
G01X9355Y894D01*
G01X8644Y894D01*
G37*
G54D41*
G01X10000Y1250D03*
G01X11000Y1250D03*
G01X12000Y1250D03*
G36*
G01X15327Y21173D02*
G01X15327Y21805D01*
G01X15643Y21805D01*
G01X15643Y21173D01*
G01X15327Y21173D01*
G37*
G36*
G01X14147Y21173D02*
G01X14147Y21805D01*
G01X14463Y21805D01*
G01X14463Y21173D01*
G01X14147Y21173D01*
G37*
G36*
G01X13556Y21173D02*
G01X13556Y21805D01*
G01X13872Y21805D01*
G01X13872Y21173D01*
G01X13556Y21173D01*
G37*
G36*
G01X15819Y21667D02*
G01X15819Y22021D01*
G01X16253Y22021D01*
G01X16253Y21667D01*
G01X15819Y21667D01*
G37*
G36*
G01X12946Y21667D02*
G01X12946Y22021D01*
G01X13380Y22021D01*
G01X13380Y21667D01*
G01X12946Y21667D01*
G37*
G36*
G01X12946Y22532D02*
G01X12946Y22888D01*
G01X13380Y22888D01*
G01X13380Y22532D01*
G01X12946Y22532D01*
G37*
G36*
G01X15819Y22532D02*
G01X15819Y22888D01*
G01X16253Y22888D01*
G01X16253Y22532D01*
G01X15819Y22532D01*
G37*
G36*
G01X2898Y14032D02*
G01X2898Y14457D01*
G01X3861Y14457D01*
G01X3861Y14032D01*
G01X2898Y14032D01*
G37*
G36*
G01X2898Y14936D02*
G01X2898Y15363D01*
G01X3861Y15363D01*
G01X3861Y14936D01*
G01X2898Y14936D01*
G37*
G36*
G01X2898Y15842D02*
G01X2898Y16267D01*
G01X3861Y16267D01*
G01X3861Y15842D01*
G01X2898Y15842D01*
G37*
G36*
G01X638Y14421D02*
G01X638Y15878D01*
G01X1601Y15878D01*
G01X1601Y14421D01*
G01X638Y14421D01*
G37*
G36*
G01X786Y7430D02*
G01X786Y7863D01*
G01X1811Y7863D01*
G01X1811Y7430D01*
G01X786Y7430D01*
G37*
G36*
G01X786Y6642D02*
G01X786Y7076D01*
G01X1811Y7076D01*
G01X1811Y6642D01*
G01X786Y6642D01*
G37*
G36*
G01X786Y5855D02*
G01X786Y6288D01*
G01X1811Y6288D01*
G01X1811Y5855D01*
G01X786Y5855D01*
G37*
G36*
G01X786Y5067D02*
G01X786Y5501D01*
G01X1811Y5501D01*
G01X1811Y5067D01*
G01X786Y5067D01*
G37*
G36*
G01X786Y4280D02*
G01X786Y4713D01*
G01X1811Y4713D01*
G01X1811Y4280D01*
G01X786Y4280D01*
G37*
G36*
G01X786Y3492D02*
G01X786Y3926D01*
G01X1811Y3926D01*
G01X1811Y3492D01*
G01X786Y3492D01*
G37*
G36*
G01X786Y2705D02*
G01X786Y3140D01*
G01X1811Y3140D01*
G01X1811Y2705D01*
G01X786Y2705D01*
G37*
G36*
G01X786Y1919D02*
G01X786Y2351D01*
G01X1811Y2351D01*
G01X1811Y1919D01*
G01X786Y1919D01*
G37*
G36*
G01X2163Y1217D02*
G01X2163Y1888D01*
G01X2598Y1888D01*
G01X2598Y1217D01*
G01X2163Y1217D01*
G37*
G36*
G01X2951Y1217D02*
G01X2951Y1888D01*
G01X3384Y1888D01*
G01X3384Y1217D01*
G01X2951Y1217D01*
G37*
G36*
G01X3738Y1217D02*
G01X3738Y1888D01*
G01X4173Y1888D01*
G01X4173Y1217D01*
G01X3738Y1217D01*
G37*
G36*
G01X4526Y1217D02*
G01X4526Y1888D01*
G01X4959Y1888D01*
G01X4959Y1217D01*
G01X4526Y1217D01*
G37*
G36*
G01X5313Y1217D02*
G01X5313Y1888D01*
G01X5746Y1888D01*
G01X5746Y1217D01*
G01X5313Y1217D01*
G37*
G36*
G01X6101Y1217D02*
G01X6101Y1888D01*
G01X6534Y1888D01*
G01X6534Y1217D01*
G01X6101Y1217D01*
G37*
G36*
G01X6888Y1919D02*
G01X6888Y2351D01*
G01X7913Y2351D01*
G01X7913Y1919D01*
G01X6888Y1919D01*
G37*
G36*
G01X6888Y2705D02*
G01X6888Y3140D01*
G01X7913Y3140D01*
G01X7913Y2705D01*
G01X6888Y2705D01*
G37*
G36*
G01X6888Y3492D02*
G01X6888Y3926D01*
G01X7913Y3926D01*
G01X7913Y3492D01*
G01X6888Y3492D01*
G37*
G36*
G01X6888Y4280D02*
G01X6888Y4715D01*
G01X7913Y4715D01*
G01X7913Y4280D01*
G01X6888Y4280D01*
G37*
G36*
G01X6888Y5067D02*
G01X6888Y5501D01*
G01X7913Y5501D01*
G01X7913Y5067D01*
G01X6888Y5067D01*
G37*
G36*
G01X6888Y5855D02*
G01X6888Y6288D01*
G01X7913Y6288D01*
G01X7913Y5855D01*
G01X6888Y5855D01*
G37*
G36*
G01X6888Y6642D02*
G01X6888Y7076D01*
G01X7913Y7076D01*
G01X7913Y6642D01*
G01X6888Y6642D01*
G37*
G36*
G01X6888Y7430D02*
G01X6888Y7863D01*
G01X7913Y7863D01*
G01X7913Y7430D01*
G01X6888Y7430D01*
G37*
M00*
M02*
