G04 Layer: TopSilkLayer*
G04 EasyEDA v6.4.7, 2021-05-23T18:21:04+05:00*
G04 4ba805003f7d4cf790364f2a1c8dc171,d3277c0307964fb6908111913dbd2705,10*
G04 Gerber Generator version 0.2*
G04 Scale: 100 percent, Rotated: No, Reflected: No *
G04 Dimensions in inches *
G04 leading zeros omitted , absolute positions ,2 integer and 4 decimal *
%FSLAX24Y24*%
%MOIN*%
G90*
D02*

%ADD10C,0.010000*%
%ADD30C,0.006000*%
%ADD31C,0.008000*%
%ADD32C,0.007992*%

%LPD*%

%LPD*%
G36*
G01X14147Y1246D02*
G01X14145Y1368D01*
G01X14012Y1246D01*
G01X13880Y1123D01*
G01X14012Y1122D01*
G01X14063Y1121D01*
G01X14106Y1121D01*
G01X14135Y1122D01*
G01X14146Y1123D01*
G01X14147Y1133D01*
G01X14147Y1246D01*
G37*

%LPD*%
G36*
G01X13919Y1998D02*
G01X12981Y1998D01*
G01X12981Y1768D01*
G01X13437Y1766D01*
G01X13894Y1765D01*
G01X13660Y1550D01*
G01X13643Y1535D01*
G01X13609Y1503D01*
G01X13571Y1469D01*
G01X13533Y1433D01*
G01X13493Y1397D01*
G01X13452Y1360D01*
G01X13432Y1341D01*
G01X13412Y1323D01*
G01X13392Y1304D01*
G01X13372Y1286D01*
G01X13353Y1268D01*
G01X13334Y1251D01*
G01X13315Y1233D01*
G01X13296Y1217D01*
G01X13278Y1200D01*
G01X13261Y1184D01*
G01X13245Y1169D01*
G01X13229Y1155D01*
G01X13214Y1141D01*
G01X13185Y1115D01*
G01X13157Y1089D01*
G01X13131Y1065D01*
G01X13106Y1042D01*
G01X13082Y1020D01*
G01X13061Y1000D01*
G01X13042Y983D01*
G01X13026Y967D01*
G01X13012Y955D01*
G01X12995Y938D01*
G01X12991Y935D01*
G01X12988Y930D01*
G01X12985Y924D01*
G01X12984Y915D01*
G01X12982Y901D01*
G01X12982Y881D01*
G01X12981Y854D01*
G01X12982Y819D01*
G01X12982Y773D01*
G01X12984Y624D01*
G01X13731Y1308D01*
G01X13761Y1336D01*
G01X13792Y1364D01*
G01X13822Y1392D01*
G01X13852Y1419D01*
G01X13910Y1473D01*
G01X13938Y1498D01*
G01X13994Y1550D01*
G01X14021Y1574D01*
G01X14047Y1599D01*
G01X14073Y1623D01*
G01X14099Y1646D01*
G01X14124Y1669D01*
G01X14172Y1713D01*
G01X14194Y1734D01*
G01X14217Y1754D01*
G01X14259Y1792D01*
G01X14279Y1811D01*
G01X14317Y1845D01*
G01X14351Y1877D01*
G01X14367Y1891D01*
G01X14381Y1905D01*
G01X14395Y1917D01*
G01X14408Y1929D01*
G01X14420Y1940D01*
G01X14431Y1950D01*
G01X14441Y1959D01*
G01X14450Y1967D01*
G01X14464Y1981D01*
G01X14470Y1986D01*
G01X14477Y1993D01*
G01X14480Y1994D01*
G01X14480Y1995D01*
G01X14479Y1995D01*
G01X14477Y1996D01*
G01X14332Y1996D01*
G01X14310Y1997D01*
G01X13954Y1997D01*
G01X13919Y1998D01*
G37*

%LPD*%
G36*
G01X13958Y873D02*
G01X13595Y873D01*
G01X13456Y748D01*
G01X13427Y723D01*
G01X13401Y699D01*
G01X13377Y678D01*
G01X13356Y659D01*
G01X13339Y644D01*
G01X13326Y632D01*
G01X13317Y624D01*
G01X13314Y621D01*
G01X13325Y621D01*
G01X13334Y620D01*
G01X13392Y620D01*
G01X13412Y619D01*
G01X14248Y619D01*
G01X14277Y620D01*
G01X14353Y620D01*
G01X14375Y621D01*
G01X14443Y621D01*
G01X14454Y622D01*
G01X14463Y622D01*
G01X14469Y623D01*
G01X14475Y623D01*
G01X14472Y627D01*
G01X14437Y662D01*
G01X14418Y679D01*
G01X14397Y699D01*
G01X14375Y719D01*
G01X14352Y741D01*
G01X14328Y762D01*
G01X14305Y783D01*
G01X14282Y803D01*
G01X14262Y821D01*
G01X14244Y836D01*
G01X14230Y848D01*
G01X14219Y857D01*
G01X14213Y862D01*
G01X14208Y864D01*
G01X14202Y866D01*
G01X14194Y868D01*
G01X14183Y869D01*
G01X14169Y870D01*
G01X14150Y871D01*
G01X14125Y871D01*
G01X14095Y872D01*
G01X14012Y872D01*
G01X13958Y873D01*
G37*

%LPD*%
G36*
G01X14424Y340D02*
G01X14420Y340D01*
G01X14415Y338D01*
G01X14409Y336D01*
G01X14402Y332D01*
G01X14380Y313D01*
G01X14373Y290D01*
G01X14381Y267D01*
G01X14405Y251D01*
G01X14423Y243D01*
G01X14432Y235D01*
G01X14434Y228D01*
G01X14429Y219D01*
G01X14423Y215D01*
G01X14418Y213D01*
G01X14412Y215D01*
G01X14402Y221D01*
G01X14392Y226D01*
G01X14386Y228D01*
G01X14382Y226D01*
G01X14378Y219D01*
G01X14373Y208D01*
G01X14373Y200D01*
G01X14380Y194D01*
G01X14393Y189D01*
G01X14425Y184D01*
G01X14451Y191D01*
G01X14468Y209D01*
G01X14475Y235D01*
G01X14472Y249D01*
G01X14465Y261D01*
G01X14453Y271D01*
G01X14435Y278D01*
G01X14422Y285D01*
G01X14417Y292D01*
G01X14422Y298D01*
G01X14437Y301D01*
G01X14449Y303D01*
G01X14459Y307D01*
G01X14466Y314D01*
G01X14468Y323D01*
G01X14463Y328D01*
G01X14450Y333D01*
G01X14435Y338D01*
G01X14424Y340D01*
G37*

%LPD*%
G36*
G01X13115Y334D02*
G01X12992Y334D01*
G01X12994Y317D01*
G01X12996Y309D01*
G01X13000Y303D01*
G01X13008Y300D01*
G01X13022Y298D01*
G01X13047Y295D01*
G01X13005Y225D01*
G01X12996Y207D01*
G01X12989Y195D01*
G01X12987Y188D01*
G01X12991Y186D01*
G01X13003Y185D01*
G01X13022Y184D01*
G01X13046Y184D01*
G01X13105Y186D01*
G01X13107Y202D01*
G01X13107Y211D01*
G01X13104Y217D01*
G01X13095Y219D01*
G01X13078Y221D01*
G01X13048Y222D01*
G01X13065Y250D01*
G01X13072Y262D01*
G01X13090Y292D01*
G01X13098Y305D01*
G01X13115Y334D01*
G37*

%LPD*%
G36*
G01X13470Y323D02*
G01X13469Y328D01*
G01X13463Y323D01*
G01X13423Y288D01*
G01X13367Y236D01*
G01X13343Y213D01*
G01X13327Y197D01*
G01X13321Y189D01*
G01X13325Y186D01*
G01X13339Y184D01*
G01X13362Y183D01*
G01X13471Y183D01*
G01X13471Y284D01*
G01X13470Y307D01*
G01X13470Y323D01*
G37*

%LPD*%
G36*
G01X14057Y334D02*
G01X14021Y334D01*
G01X14021Y276D01*
G01X14022Y243D01*
G01X14023Y224D01*
G01X14029Y212D01*
G01X14039Y201D01*
G01X14049Y192D01*
G01X14059Y186D01*
G01X14070Y184D01*
G01X14085Y183D01*
G01X14100Y184D01*
G01X14111Y186D01*
G01X14120Y192D01*
G01X14131Y201D01*
G01X14140Y212D01*
G01X14146Y224D01*
G01X14148Y243D01*
G01X14148Y334D01*
G01X14112Y334D01*
G01X14112Y290D01*
G01X14111Y253D01*
G01X14107Y232D01*
G01X14100Y222D01*
G01X14087Y219D01*
G01X14072Y222D01*
G01X14064Y233D01*
G01X14059Y255D01*
G01X14057Y288D01*
G01X14057Y334D01*
G37*

%LPD*%
G36*
G01X13719Y334D02*
G01X13682Y334D01*
G01X13684Y260D01*
G01X13685Y186D01*
G01X13703Y186D01*
G01X13714Y187D01*
G01X13719Y190D01*
G01X13722Y198D01*
G01X13725Y212D01*
G01X13728Y238D01*
G01X13745Y210D01*
G01X13755Y196D01*
G01X13763Y188D01*
G01X13771Y184D01*
G01X13783Y183D01*
G01X13791Y183D01*
G01X13797Y184D01*
G01X13802Y186D01*
G01X13803Y188D01*
G01X13802Y192D01*
G01X13792Y207D01*
G01X13785Y216D01*
G01X13773Y232D01*
G01X13768Y242D01*
G01X13771Y248D01*
G01X13779Y254D01*
G01X13785Y259D01*
G01X13789Y265D01*
G01X13790Y273D01*
G01X13791Y284D01*
G01X13788Y308D01*
G01X13776Y324D01*
G01X13754Y332D01*
G01X13719Y334D01*
G37*

%LPC*%
G36*
G01X13741Y303D02*
G01X13736Y304D01*
G01X13731Y303D01*
G01X13727Y300D01*
G01X13725Y294D01*
G01X13725Y278D01*
G01X13727Y273D01*
G01X13730Y269D01*
G01X13733Y268D01*
G01X13742Y270D01*
G01X13748Y277D01*
G01X13752Y285D01*
G01X13751Y294D01*
G01X13749Y298D01*
G01X13745Y301D01*
G01X13741Y303D01*
G37*

%LPD*%
G54D10*
G01X14754Y17312D02*
G01X14609Y17312D01*
G01X15645Y18887D02*
G01X15790Y18887D01*
G01X15790Y17312D01*
G01X15645Y17312D01*
G01X14609Y17312D02*
G01X14609Y18887D01*
G01X14754Y18887D01*
G54D30*
G01X7024Y15325D02*
G01X7559Y15325D01*
G01X7559Y16174D01*
G01X7024Y16174D01*
G01X6275Y15325D02*
G01X5740Y15325D01*
G01X5740Y16174D01*
G01X6275Y16174D01*
G01X4325Y13024D02*
G01X3790Y13024D01*
G01X3790Y12175D01*
G01X4325Y12175D01*
G01X5074Y13024D02*
G01X5609Y13024D01*
G01X5609Y12175D01*
G01X5074Y12175D01*
G01X7674Y13574D02*
G01X7674Y14109D01*
G01X6825Y14109D01*
G01X6825Y13574D01*
G01X7674Y12825D02*
G01X7674Y12290D01*
G01X6825Y12290D01*
G01X6825Y12825D01*
G01X1974Y12175D02*
G01X2509Y12175D01*
G01X2509Y13024D01*
G01X1974Y13024D01*
G01X1225Y12175D02*
G01X690Y12175D01*
G01X690Y13024D01*
G01X1225Y13024D01*
G01X13305Y6480D02*
G01X11859Y6480D01*
G01X13305Y2419D02*
G01X11859Y2419D01*
G01X11859Y6480D02*
G01X11859Y2419D01*
G01X13305Y11030D02*
G01X11859Y11030D01*
G01X13305Y6969D02*
G01X11859Y6969D01*
G01X11859Y11030D02*
G01X11859Y6969D01*
G01X13305Y15530D02*
G01X11859Y15530D01*
G01X13305Y11469D02*
G01X11859Y11469D01*
G01X11859Y15530D02*
G01X11859Y11469D01*
G54D31*
G01X12500Y1750D02*
G01X12500Y750D01*
G01X8500Y750D01*
G01X8500Y1750D01*
G01X9250Y1750D01*
G54D32*
G01X12500Y1750D02*
G01X9250Y1750D01*
G54D10*
G01X14363Y23418D02*
G01X14285Y23340D01*
G01X14718Y23418D02*
G01X14796Y23340D01*
G01X14285Y23340D02*
G01X14285Y22828D01*
G01X14796Y23340D02*
G01X14796Y22828D01*
G01X14718Y23418D02*
G01X14363Y23418D01*
G01X15768Y21765D02*
G01X15712Y21765D01*
G01X15938Y22473D02*
G01X15938Y22092D01*
G01X13431Y22788D02*
G01X15781Y22788D01*
G01X13261Y22092D02*
G01X13261Y22461D01*
G01X13487Y21765D02*
G01X13418Y21765D01*
G01X14078Y21765D02*
G01X13940Y21765D01*
G01X15259Y21765D02*
G01X14531Y21765D01*
G54D30*
G01X1670Y13840D02*
G01X1670Y16459D01*
G01X2829Y16459D01*
G01X2829Y13840D01*
G01X1670Y13840D01*
G54D10*
G01X5150Y23100D02*
G01X5150Y17100D01*
G01X12150Y17100D01*
G01X12150Y23100D01*
G01X5150Y23100D01*
G01X1053Y23451D02*
G01X4596Y23451D01*
G01X4596Y23451D02*
G01X4596Y17782D01*
G01X1053Y21995D02*
G01X4596Y21995D01*
G01X1565Y21963D02*
G01X1565Y17782D01*
G01X4085Y21963D02*
G01X4085Y17782D01*
G01X4596Y17782D02*
G01X3779Y17782D01*
G01X1870Y17782D02*
G01X1053Y17782D01*
G01X1053Y23451D02*
G01X1053Y20150D01*
G01X1053Y18170D02*
G01X1053Y17782D01*
G01X7498Y11001D02*
G01X1199Y11001D01*
G01X1593Y8246D02*
G01X7105Y8246D01*
G01X6317Y8639D02*
G01X2380Y8639D01*
G01X2380Y10608D01*
G01X2774Y10608D01*
G01X2774Y9427D01*
G01X3168Y9427D01*
G01X3168Y10608D01*
G01X3561Y10608D01*
G01X3561Y9427D01*
G01X3955Y9427D01*
G01X3955Y10608D01*
G01X4349Y10608D01*
G01X4349Y9427D01*
G01X4743Y9427D01*
G01X4743Y10608D01*
G01X7105Y10608D01*
G01X1987Y7458D02*
G01X1987Y2340D01*
G01X6711Y2340D01*
G01X6711Y7458D01*
G01X1987Y7458D01*
G01X7498Y1553D02*
G01X6605Y1553D01*
G01X6029Y1553D02*
G01X5817Y1553D01*
G01X5241Y1553D02*
G01X5030Y1553D01*
G01X4454Y1553D02*
G01X4242Y1553D01*
G01X3667Y1553D02*
G01X3455Y1553D01*
G01X2880Y1553D02*
G01X2669Y1553D01*
G01X2093Y1553D02*
G01X1199Y1553D01*
G01X1199Y1553D02*
G01X1199Y1847D01*
G01X1199Y2423D02*
G01X1199Y2634D01*
G01X1199Y3210D02*
G01X1199Y3422D01*
G01X1199Y3998D02*
G01X1199Y4209D01*
G01X1199Y4785D02*
G01X1199Y4997D01*
G01X1199Y5572D02*
G01X1199Y5784D01*
G01X1199Y6360D02*
G01X1199Y6571D01*
G01X1199Y7147D02*
G01X1199Y7359D01*
G01X1199Y7935D02*
G01X1199Y11001D01*
G01X7498Y11001D02*
G01X7498Y7935D01*
G01X7498Y7359D02*
G01X7498Y7147D01*
G01X7498Y6572D02*
G01X7498Y6360D01*
G01X7498Y5784D02*
G01X7498Y5572D01*
G01X7498Y4997D02*
G01X7498Y4785D01*
G01X7498Y4209D02*
G01X7498Y3998D01*
G01X7498Y3422D02*
G01X7498Y3210D01*
G01X7498Y2635D02*
G01X7498Y2423D01*
G01X7498Y1847D02*
G01X7498Y1587D01*
G54D31*
G01X16046Y17500D02*
G01X16427Y17500D01*
G01X16046Y17500D02*
G01X16046Y17663D01*
G01X16064Y17717D01*
G01X16082Y17736D01*
G01X16118Y17755D01*
G01X16155Y17755D01*
G01X16192Y17736D01*
G01X16210Y17717D01*
G01X16227Y17663D01*
G01X16227Y17500D01*
G01X16227Y17627D02*
G01X16427Y17755D01*
G01X16046Y17875D02*
G01X16427Y17875D01*
G01X16046Y17875D02*
G01X16046Y18111D01*
G01X16227Y17875D02*
G01X16227Y18019D01*
G01X16427Y17875D02*
G01X16427Y18111D01*
G01X16101Y18484D02*
G01X16064Y18448D01*
G01X16046Y18394D01*
G01X16046Y18321D01*
G01X16064Y18267D01*
G01X16101Y18230D01*
G01X16136Y18230D01*
G01X16173Y18248D01*
G01X16192Y18267D01*
G01X16210Y18303D01*
G01X16246Y18413D01*
G01X16264Y18448D01*
G01X16282Y18467D01*
G01X16318Y18484D01*
G01X16373Y18484D01*
G01X16410Y18448D01*
G01X16427Y18394D01*
G01X16427Y18321D01*
G01X16410Y18267D01*
G01X16373Y18230D01*
G01X16046Y18605D02*
G01X16427Y18605D01*
G01X16046Y18605D02*
G01X16046Y18842D01*
G01X16227Y18605D02*
G01X16227Y18751D01*
G01X16427Y18605D02*
G01X16427Y18842D01*
G01X16046Y19088D02*
G01X16427Y19088D01*
G01X16046Y18961D02*
G01X16046Y19215D01*
G01X16447Y20550D02*
G01X16734Y20550D01*
G01X16447Y20550D02*
G01X16447Y20673D01*
G01X16460Y20713D01*
G01X16475Y20727D01*
G01X16502Y20740D01*
G01X16528Y20740D01*
G01X16556Y20727D01*
G01X16569Y20713D01*
G01X16584Y20673D01*
G01X16584Y20550D02*
G01X16584Y20673D01*
G01X16597Y20713D01*
G01X16610Y20727D01*
G01X16638Y20740D01*
G01X16678Y20740D01*
G01X16706Y20727D01*
G01X16719Y20713D01*
G01X16734Y20673D01*
G01X16734Y20550D01*
G01X16447Y20913D02*
G01X16460Y20884D01*
G01X16488Y20857D01*
G01X16514Y20844D01*
G01X16556Y20830D01*
G01X16625Y20830D01*
G01X16664Y20844D01*
G01X16693Y20857D01*
G01X16719Y20884D01*
G01X16734Y20913D01*
G01X16734Y20967D01*
G01X16719Y20994D01*
G01X16693Y21021D01*
G01X16664Y21034D01*
G01X16625Y21048D01*
G01X16556Y21048D01*
G01X16514Y21034D01*
G01X16488Y21021D01*
G01X16460Y20994D01*
G01X16447Y20967D01*
G01X16447Y20913D01*
G01X16447Y21221D02*
G01X16460Y21194D01*
G01X16488Y21165D01*
G01X16514Y21153D01*
G01X16556Y21138D01*
G01X16625Y21138D01*
G01X16664Y21153D01*
G01X16693Y21165D01*
G01X16719Y21194D01*
G01X16734Y21221D01*
G01X16734Y21275D01*
G01X16719Y21303D01*
G01X16693Y21330D01*
G01X16664Y21344D01*
G01X16625Y21357D01*
G01X16556Y21357D01*
G01X16514Y21344D01*
G01X16488Y21330D01*
G01X16460Y21303D01*
G01X16447Y21275D01*
G01X16447Y21221D01*
G01X16447Y21542D02*
G01X16734Y21542D01*
G01X16447Y21446D02*
G01X16447Y21638D01*
G01X16393Y21973D02*
G01X16828Y21728D01*
G01X16447Y22063D02*
G01X16734Y22063D01*
G01X16447Y22063D02*
G01X16447Y22186D01*
G01X16460Y22227D01*
G01X16475Y22240D01*
G01X16502Y22255D01*
G01X16543Y22255D01*
G01X16569Y22240D01*
G01X16584Y22227D01*
G01X16597Y22186D01*
G01X16597Y22063D01*
G01X16447Y22344D02*
G01X16734Y22344D01*
G01X16447Y22344D02*
G01X16447Y22467D01*
G01X16460Y22507D01*
G01X16475Y22521D01*
G01X16502Y22534D01*
G01X16528Y22534D01*
G01X16556Y22521D01*
G01X16569Y22507D01*
G01X16584Y22467D01*
G01X16584Y22344D01*
G01X16584Y22440D02*
G01X16734Y22534D01*
G01X16447Y22707D02*
G01X16460Y22680D01*
G01X16488Y22653D01*
G01X16514Y22638D01*
G01X16556Y22625D01*
G01X16625Y22625D01*
G01X16664Y22638D01*
G01X16693Y22653D01*
G01X16719Y22680D01*
G01X16734Y22707D01*
G01X16734Y22761D01*
G01X16719Y22788D01*
G01X16693Y22815D01*
G01X16664Y22830D01*
G01X16625Y22844D01*
G01X16556Y22844D01*
G01X16514Y22830D01*
G01X16488Y22815D01*
G01X16460Y22788D01*
G01X16447Y22761D01*
G01X16447Y22707D01*
G01X16514Y23138D02*
G01X16488Y23125D01*
G01X16460Y23096D01*
G01X16447Y23069D01*
G01X16447Y23015D01*
G01X16460Y22988D01*
G01X16488Y22961D01*
G01X16514Y22946D01*
G01X16556Y22934D01*
G01X16625Y22934D01*
G01X16664Y22946D01*
G01X16693Y22961D01*
G01X16719Y22988D01*
G01X16734Y23015D01*
G01X16734Y23069D01*
G01X16719Y23096D01*
G01X16693Y23125D01*
G01X16664Y23138D01*
G01X16625Y23138D01*
G01X16625Y23069D02*
G01X16625Y23138D01*
G01X730Y22650D02*
G01X748Y22613D01*
G01X803Y22559D01*
G01X421Y22559D01*
G01X713Y22421D02*
G01X730Y22421D01*
G01X767Y22403D01*
G01X784Y22384D01*
G01X803Y22348D01*
G01X803Y22275D01*
G01X784Y22238D01*
G01X767Y22221D01*
G01X730Y22203D01*
G01X694Y22203D01*
G01X657Y22221D01*
G01X603Y22257D01*
G01X421Y22438D01*
G01X421Y22184D01*
G01X803Y22065D02*
G01X421Y21919D01*
G01X803Y21773D02*
G01X421Y21919D01*
G01X803Y21373D02*
G01X421Y21373D01*
G01X803Y21253D02*
G01X421Y21253D01*
G01X803Y21253D02*
G01X421Y20998D01*
G01X803Y20998D02*
G01X421Y20998D01*
G01X11900Y553D02*
G01X11900Y171D01*
G01X11900Y553D02*
G01X12064Y553D01*
G01X12118Y534D01*
G01X12135Y517D01*
G01X12155Y480D01*
G01X12155Y444D01*
G01X12135Y407D01*
G01X12118Y390D01*
G01X12064Y371D01*
G01X11900Y371D02*
G01X12064Y371D01*
G01X12118Y353D01*
G01X12135Y334D01*
G01X12155Y298D01*
G01X12155Y244D01*
G01X12135Y207D01*
G01X12118Y190D01*
G01X12064Y171D01*
G01X11900Y171D01*
G01X11122Y463D02*
G01X11105Y498D01*
G01X11068Y534D01*
G01X11031Y553D01*
G01X10959Y553D01*
G01X10922Y534D01*
G01X10885Y498D01*
G01X10868Y463D01*
G01X10850Y407D01*
G01X10850Y317D01*
G01X10868Y263D01*
G01X10885Y226D01*
G01X10922Y190D01*
G01X10959Y171D01*
G01X11031Y171D01*
G01X11068Y190D01*
G01X11105Y226D01*
G01X11122Y263D01*
G01X11122Y317D01*
G01X11031Y317D02*
G01X11122Y317D01*
G01X9900Y553D02*
G01X9900Y171D01*
G01X9900Y553D02*
G01X10064Y553D01*
G01X10118Y534D01*
G01X10135Y517D01*
G01X10155Y480D01*
G01X10155Y444D01*
G01X10135Y407D01*
G01X10118Y390D01*
G01X10064Y371D01*
G01X9900Y371D01*
G01X10027Y371D02*
G01X10155Y171D01*
G01X8550Y480D02*
G01X8585Y498D01*
G01X8640Y553D01*
G01X8640Y171D01*
G01X8778Y463D02*
G01X8778Y480D01*
G01X8797Y517D01*
G01X8814Y534D01*
G01X8852Y553D01*
G01X8925Y553D01*
G01X8960Y534D01*
G01X8978Y517D01*
G01X8997Y480D01*
G01X8997Y444D01*
G01X8978Y407D01*
G01X8943Y353D01*
G01X8760Y171D01*
G01X9014Y171D01*
G01X9135Y553D02*
G01X9281Y171D01*
G01X9426Y553D02*
G01X9281Y171D01*
G54D30*
G01X14106Y18386D02*
G01X14065Y18344D01*
G01X14046Y18284D01*
G01X14046Y18202D01*
G01X14065Y18140D01*
G01X14106Y18100D01*
G01X14147Y18100D01*
G01X14189Y18119D01*
G01X14210Y18140D01*
G01X14230Y18182D01*
G01X14271Y18305D01*
G01X14290Y18344D01*
G01X14311Y18365D01*
G01X14352Y18386D01*
G01X14414Y18386D01*
G01X14455Y18344D01*
G01X14475Y18284D01*
G01X14475Y18202D01*
G01X14455Y18140D01*
G01X14414Y18100D01*
G01X14046Y18521D02*
G01X14475Y18623D01*
G01X14046Y18726D02*
G01X14475Y18623D01*
G01X14046Y18726D02*
G01X14475Y18828D01*
G01X14046Y18930D02*
G01X14475Y18828D01*
G01X14127Y19065D02*
G01X14106Y19105D01*
G01X14046Y19167D01*
G01X14475Y19167D01*
G01X6650Y16803D02*
G01X6650Y16375D01*
G01X6650Y16803D02*
G01X6834Y16803D01*
G01X6894Y16784D01*
G01X6915Y16763D01*
G01X6936Y16721D01*
G01X6936Y16680D01*
G01X6915Y16640D01*
G01X6894Y16619D01*
G01X6834Y16600D01*
G01X6650Y16600D01*
G01X6792Y16600D02*
G01X6936Y16375D01*
G01X7317Y16742D02*
G01X7296Y16784D01*
G01X7234Y16803D01*
G01X7194Y16803D01*
G01X7132Y16784D01*
G01X7092Y16721D01*
G01X7071Y16619D01*
G01X7071Y16517D01*
G01X7092Y16436D01*
G01X7132Y16394D01*
G01X7194Y16375D01*
G01X7215Y16375D01*
G01X7276Y16394D01*
G01X7317Y16436D01*
G01X7336Y16496D01*
G01X7336Y16517D01*
G01X7317Y16578D01*
G01X7276Y16619D01*
G01X7215Y16640D01*
G01X7194Y16640D01*
G01X7132Y16619D01*
G01X7092Y16578D01*
G01X7071Y16517D01*
G01X4700Y11546D02*
G01X4700Y11975D01*
G01X4700Y11546D02*
G01X4515Y11546D01*
G01X4455Y11565D01*
G01X4434Y11586D01*
G01X4413Y11628D01*
G01X4413Y11669D01*
G01X4434Y11709D01*
G01X4455Y11730D01*
G01X4515Y11750D01*
G01X4700Y11750D01*
G01X4557Y11750D02*
G01X4413Y11975D01*
G01X3992Y11546D02*
G01X4196Y11975D01*
G01X4278Y11546D02*
G01X3992Y11546D01*
G01X6196Y13200D02*
G01X6625Y13200D01*
G01X6196Y13200D02*
G01X6196Y13384D01*
G01X6215Y13444D01*
G01X6236Y13465D01*
G01X6278Y13486D01*
G01X6319Y13486D01*
G01X6359Y13465D01*
G01X6380Y13444D01*
G01X6400Y13384D01*
G01X6400Y13200D01*
G01X6400Y13342D02*
G01X6625Y13486D01*
G01X6196Y13867D02*
G01X6196Y13661D01*
G01X6380Y13642D01*
G01X6359Y13661D01*
G01X6338Y13723D01*
G01X6338Y13784D01*
G01X6359Y13846D01*
G01X6400Y13886D01*
G01X6461Y13907D01*
G01X6503Y13907D01*
G01X6563Y13886D01*
G01X6605Y13846D01*
G01X6625Y13784D01*
G01X6625Y13723D01*
G01X6605Y13661D01*
G01X6584Y13642D01*
G01X6544Y13621D01*
G01X1600Y13653D02*
G01X1600Y13225D01*
G01X1600Y13653D02*
G01X1784Y13653D01*
G01X1844Y13634D01*
G01X1865Y13613D01*
G01X1886Y13571D01*
G01X1886Y13530D01*
G01X1865Y13490D01*
G01X1844Y13469D01*
G01X1784Y13450D01*
G01X1600Y13450D01*
G01X1742Y13450D02*
G01X1886Y13225D01*
G01X2123Y13653D02*
G01X2061Y13634D01*
G01X2042Y13592D01*
G01X2042Y13551D01*
G01X2061Y13511D01*
G01X2103Y13490D01*
G01X2184Y13469D01*
G01X2246Y13450D01*
G01X2286Y13409D01*
G01X2307Y13367D01*
G01X2307Y13305D01*
G01X2286Y13265D01*
G01X2267Y13244D01*
G01X2205Y13225D01*
G01X2123Y13225D01*
G01X2061Y13244D01*
G01X2042Y13265D01*
G01X2021Y13305D01*
G01X2021Y13367D01*
G01X2042Y13409D01*
G01X2082Y13450D01*
G01X2144Y13469D01*
G01X2226Y13490D01*
G01X2267Y13511D01*
G01X2286Y13551D01*
G01X2286Y13592D01*
G01X2267Y13634D01*
G01X2205Y13653D01*
G01X2123Y13653D01*
G01X12536Y1796D02*
G01X12577Y1815D01*
G01X12618Y1857D01*
G01X12639Y1898D01*
G01X12659Y1959D01*
G01X12659Y2061D01*
G01X12639Y2123D01*
G01X12618Y2163D01*
G01X12577Y2205D01*
G01X12536Y2225D01*
G01X12454Y2225D01*
G01X12414Y2205D01*
G01X12373Y2163D01*
G01X12352Y2123D01*
G01X12332Y2061D01*
G01X12332Y1959D01*
G01X12352Y1898D01*
G01X12373Y1857D01*
G01X12414Y1815D01*
G01X12454Y1796D01*
G01X12536Y1796D01*
G01X12475Y2144D02*
G01X12352Y2265D01*
G01X12156Y1796D02*
G01X11931Y1796D01*
G01X12054Y1959D01*
G01X11992Y1959D01*
G01X11951Y1980D01*
G01X11931Y2000D01*
G01X11910Y2061D01*
G01X11910Y2103D01*
G01X11931Y2163D01*
G01X11972Y2205D01*
G01X12033Y2225D01*
G01X12094Y2225D01*
G01X12156Y2205D01*
G01X12176Y2184D01*
G01X12197Y2144D01*
G01X12536Y6346D02*
G01X12577Y6365D01*
G01X12618Y6407D01*
G01X12639Y6448D01*
G01X12659Y6509D01*
G01X12659Y6611D01*
G01X12639Y6673D01*
G01X12618Y6713D01*
G01X12577Y6755D01*
G01X12536Y6775D01*
G01X12454Y6775D01*
G01X12414Y6755D01*
G01X12373Y6713D01*
G01X12352Y6673D01*
G01X12332Y6611D01*
G01X12332Y6509D01*
G01X12352Y6448D01*
G01X12373Y6407D01*
G01X12414Y6365D01*
G01X12454Y6346D01*
G01X12536Y6346D01*
G01X12475Y6694D02*
G01X12352Y6815D01*
G01X12176Y6448D02*
G01X12176Y6428D01*
G01X12156Y6386D01*
G01X12135Y6365D01*
G01X12094Y6346D01*
G01X12013Y6346D01*
G01X11972Y6365D01*
G01X11951Y6386D01*
G01X11931Y6428D01*
G01X11931Y6469D01*
G01X11951Y6509D01*
G01X11992Y6571D01*
G01X12197Y6775D01*
G01X11910Y6775D01*
G01X12536Y10846D02*
G01X12577Y10865D01*
G01X12618Y10907D01*
G01X12639Y10948D01*
G01X12659Y11009D01*
G01X12659Y11111D01*
G01X12639Y11173D01*
G01X12618Y11213D01*
G01X12577Y11255D01*
G01X12536Y11275D01*
G01X12454Y11275D01*
G01X12414Y11255D01*
G01X12373Y11213D01*
G01X12352Y11173D01*
G01X12332Y11111D01*
G01X12332Y11009D01*
G01X12352Y10948D01*
G01X12373Y10907D01*
G01X12414Y10865D01*
G01X12454Y10846D01*
G01X12536Y10846D01*
G01X12475Y11194D02*
G01X12352Y11315D01*
G01X12197Y10928D02*
G01X12156Y10907D01*
G01X12094Y10846D01*
G01X12094Y11275D01*
G01X10400Y2303D02*
G01X10400Y1875D01*
G01X10685Y2303D02*
G01X10685Y1875D01*
G01X10400Y2100D02*
G01X10685Y2100D01*
G01X10821Y2221D02*
G01X10861Y2242D01*
G01X10923Y2303D01*
G01X10923Y1875D01*
G01X14374Y20643D02*
G01X14415Y20602D01*
G01X14476Y20582D01*
G01X14558Y20582D01*
G01X14619Y20602D01*
G01X14660Y20643D01*
G01X14660Y20684D01*
G01X14640Y20725D01*
G01X14619Y20746D01*
G01X14578Y20766D01*
G01X14455Y20807D01*
G01X14415Y20827D01*
G01X14394Y20848D01*
G01X14374Y20889D01*
G01X14374Y20950D01*
G01X14415Y20991D01*
G01X14476Y21011D01*
G01X14558Y21011D01*
G01X14619Y20991D01*
G01X14660Y20950D01*
G01X14239Y20582D02*
G01X14136Y21011D01*
G01X14034Y20582D02*
G01X14136Y21011D01*
G01X14034Y20582D02*
G01X13932Y21011D01*
G01X13830Y20582D02*
G01X13932Y21011D01*
G01X13674Y20684D02*
G01X13674Y20664D01*
G01X13654Y20623D01*
G01X13633Y20602D01*
G01X13592Y20582D01*
G01X13510Y20582D01*
G01X13470Y20602D01*
G01X13449Y20623D01*
G01X13429Y20664D01*
G01X13429Y20705D01*
G01X13449Y20746D01*
G01X13490Y20807D01*
G01X13695Y21011D01*
G01X13408Y21011D01*
G01X2350Y17103D02*
G01X2350Y16796D01*
G01X2369Y16736D01*
G01X2411Y16694D01*
G01X2473Y16675D01*
G01X2513Y16675D01*
G01X2575Y16694D01*
G01X2615Y16736D01*
G01X2636Y16796D01*
G01X2636Y17103D01*
G01X2792Y17002D02*
G01X2792Y17021D01*
G01X2811Y17063D01*
G01X2832Y17084D01*
G01X2873Y17103D01*
G01X2955Y17103D01*
G01X2996Y17084D01*
G01X3017Y17063D01*
G01X3036Y17021D01*
G01X3036Y16980D01*
G01X3017Y16940D01*
G01X2976Y16878D01*
G01X2771Y16675D01*
G01X3057Y16675D01*
G01X8650Y23753D02*
G01X8650Y23446D01*
G01X8669Y23386D01*
G01X8710Y23344D01*
G01X8772Y23325D01*
G01X8814Y23325D01*
G01X8875Y23344D01*
G01X8915Y23386D01*
G01X8935Y23446D01*
G01X8935Y23753D01*
G01X9071Y23671D02*
G01X9111Y23692D01*
G01X9173Y23753D01*
G01X9173Y23325D01*
G54D31*
G01X6975Y20175D02*
G01X6925Y20150D01*
G01X6873Y20100D01*
G01X6848Y20050D01*
G01X6848Y19948D01*
G01X6873Y19898D01*
G01X6925Y19848D01*
G01X6975Y19823D01*
G01X7050Y19798D01*
G01X7175Y19798D01*
G01X7250Y19823D01*
G01X7300Y19848D01*
G01X7350Y19898D01*
G01X7375Y19948D01*
G01X7375Y20050D01*
G01X7350Y20100D01*
G01X7300Y20150D01*
G01X7250Y20175D01*
G01X6848Y20515D02*
G01X7375Y20515D01*
G01X6848Y20340D02*
G01X6848Y20690D01*
G01X6925Y21207D02*
G01X6873Y21157D01*
G01X6848Y21082D01*
G01X6848Y20982D01*
G01X6873Y20905D01*
G01X6925Y20855D01*
G01X6975Y20855D01*
G01X7025Y20880D01*
G01X7050Y20905D01*
G01X7075Y20955D01*
G01X7125Y21107D01*
G01X7150Y21157D01*
G01X7175Y21182D01*
G01X7225Y21207D01*
G01X7300Y21207D01*
G01X7350Y21157D01*
G01X7375Y21082D01*
G01X7375Y20982D01*
G01X7350Y20905D01*
G01X7300Y20855D01*
G01X7848Y19798D02*
G01X8375Y19998D01*
G01X7848Y20200D02*
G01X8375Y19998D01*
G01X7975Y20740D02*
G01X7925Y20715D01*
G01X7873Y20665D01*
G01X7848Y20615D01*
G01X7848Y20515D01*
G01X7873Y20465D01*
G01X7925Y20415D01*
G01X7975Y20390D01*
G01X8050Y20365D01*
G01X8175Y20365D01*
G01X8250Y20390D01*
G01X8300Y20415D01*
G01X8350Y20465D01*
G01X8375Y20515D01*
G01X8375Y20615D01*
G01X8350Y20665D01*
G01X8300Y20715D01*
G01X8250Y20740D01*
G01X7975Y21282D02*
G01X7925Y21257D01*
G01X7873Y21207D01*
G01X7848Y21157D01*
G01X7848Y21057D01*
G01X7873Y21007D01*
G01X7925Y20955D01*
G01X7975Y20930D01*
G01X8050Y20905D01*
G01X8175Y20905D01*
G01X8250Y20930D01*
G01X8300Y20955D01*
G01X8350Y21007D01*
G01X8375Y21057D01*
G01X8375Y21157D01*
G01X8350Y21207D01*
G01X8300Y21257D01*
G01X8250Y21282D01*
G01X8848Y19973D02*
G01X9375Y19973D01*
G01X8848Y19798D02*
G01X8848Y20150D01*
G01X8848Y20315D02*
G01X9375Y20665D01*
G01X8848Y20665D02*
G01X9375Y20315D01*
G01X9848Y19798D02*
G01X10375Y19798D01*
G01X9848Y19798D02*
G01X9848Y20023D01*
G01X9873Y20100D01*
G01X9898Y20125D01*
G01X9950Y20150D01*
G01X10000Y20150D01*
G01X10050Y20125D01*
G01X10075Y20100D01*
G01X10100Y20023D01*
G01X10100Y19798D01*
G01X10100Y19973D02*
G01X10375Y20150D01*
G01X9848Y20315D02*
G01X10375Y20665D01*
G01X9848Y20665D02*
G01X10375Y20315D01*
G01X10848Y19798D02*
G01X11375Y19798D01*
G01X10848Y19798D02*
G01X10848Y19973D01*
G01X10873Y20050D01*
G01X10925Y20100D01*
G01X10975Y20125D01*
G01X11050Y20150D01*
G01X11175Y20150D01*
G01X11250Y20125D01*
G01X11300Y20100D01*
G01X11350Y20050D01*
G01X11375Y19973D01*
G01X11375Y19798D01*
G01X10848Y20490D02*
G01X11375Y20490D01*
G01X10848Y20315D02*
G01X10848Y20665D01*
G01X10848Y20830D02*
G01X11375Y20830D01*
G01X10848Y20830D02*
G01X10848Y21057D01*
G01X10873Y21132D01*
G01X10898Y21157D01*
G01X10950Y21182D01*
G01X11000Y21182D01*
G01X11050Y21157D01*
G01X11075Y21132D01*
G01X11100Y21057D01*
G01X11100Y20830D01*
G01X11100Y21007D02*
G01X11375Y21182D01*
G01X5975Y20175D02*
G01X5925Y20150D01*
G01X5873Y20100D01*
G01X5848Y20050D01*
G01X5848Y19948D01*
G01X5873Y19898D01*
G01X5925Y19848D01*
G01X5975Y19823D01*
G01X6050Y19798D01*
G01X6175Y19798D01*
G01X6250Y19823D01*
G01X6300Y19848D01*
G01X6350Y19898D01*
G01X6375Y19948D01*
G01X6375Y20050D01*
G01X6350Y20100D01*
G01X6300Y20150D01*
G01X6250Y20175D01*
G01X6175Y20175D01*
G01X6175Y20050D02*
G01X6175Y20175D01*
G01X5848Y20340D02*
G01X6375Y20340D01*
G01X5848Y20340D02*
G01X6375Y20690D01*
G01X5848Y20690D02*
G01X6375Y20690D01*
G01X5848Y20855D02*
G01X6375Y20855D01*
G01X5848Y20855D02*
G01X5848Y21032D01*
G01X5873Y21107D01*
G01X5925Y21157D01*
G01X5975Y21182D01*
G01X6050Y21207D01*
G01X6175Y21207D01*
G01X6250Y21182D01*
G01X6300Y21157D01*
G01X6350Y21107D01*
G01X6375Y21032D01*
G01X6375Y20855D01*
G01X7724Y18969D02*
G01X7724Y18206D01*
G01X7724Y18969D02*
G01X8197Y18969D01*
G01X7724Y18606D02*
G01X8015Y18606D01*
G01X8691Y18969D02*
G01X8691Y18206D01*
G01X8437Y18969D02*
G01X8946Y18969D01*
G01X9186Y18969D02*
G01X9186Y18206D01*
G01X9186Y18969D02*
G01X9440Y18969D01*
G01X9549Y18933D01*
G01X9622Y18860D01*
G01X9659Y18787D01*
G01X9695Y18678D01*
G01X9695Y18497D01*
G01X9659Y18387D01*
G01X9622Y18315D01*
G01X9549Y18242D01*
G01X9440Y18206D01*
G01X9186Y18206D01*
G01X9935Y18969D02*
G01X9935Y18206D01*
G54D30*
G01X5379Y20563D02*
G01X4950Y20563D01*
G01X5379Y20563D02*
G01X5379Y20420D01*
G01X5359Y20358D01*
G01X5318Y20318D01*
G01X5277Y20297D01*
G01X5215Y20277D01*
G01X5113Y20277D01*
G01X5052Y20297D01*
G01X5011Y20318D01*
G01X4970Y20358D01*
G01X4950Y20420D01*
G01X4950Y20563D01*
G01X5277Y19835D02*
G01X5318Y19855D01*
G01X5359Y19896D01*
G01X5379Y19937D01*
G01X5379Y20019D01*
G01X5359Y20060D01*
G01X5318Y20101D01*
G01X5277Y20121D01*
G01X5215Y20142D01*
G01X5113Y20142D01*
G01X5052Y20121D01*
G01X5011Y20101D01*
G01X4970Y20060D01*
G01X4950Y20019D01*
G01X4950Y19937D01*
G01X4970Y19896D01*
G01X5011Y19855D01*
G01X5052Y19835D01*
G01X5297Y19700D02*
G01X5318Y19659D01*
G01X5379Y19598D01*
G01X4950Y19598D01*
G01X4299Y11606D02*
G01X4299Y11177D01*
G01X4299Y11606D02*
G01X4463Y11177D01*
G01X4626Y11606D02*
G01X4463Y11177D01*
G01X4626Y11606D02*
G01X4626Y11177D01*
G01X4761Y11606D02*
G01X4761Y11177D01*
G01X5048Y11606D02*
G01X4761Y11320D01*
G01X4864Y11422D02*
G01X5048Y11177D01*
G01X5183Y11524D02*
G01X5224Y11545D01*
G01X5285Y11606D01*
G01X5285Y11177D01*
G54D31*
G01X2449Y5185D02*
G01X2449Y4422D01*
G01X2449Y5185D02*
G01X2922Y5185D01*
G01X2449Y4822D02*
G01X2740Y4822D01*
G01X2449Y4422D02*
G01X2922Y4422D01*
G01X3671Y5076D02*
G01X3598Y5149D01*
G01X3489Y5185D01*
G01X3344Y5185D01*
G01X3234Y5149D01*
G01X3162Y5076D01*
G01X3162Y5004D01*
G01X3198Y4931D01*
G01X3234Y4894D01*
G01X3307Y4858D01*
G01X3525Y4785D01*
G01X3598Y4749D01*
G01X3634Y4713D01*
G01X3671Y4640D01*
G01X3671Y4531D01*
G01X3598Y4458D01*
G01X3489Y4422D01*
G01X3344Y4422D01*
G01X3234Y4458D01*
G01X3162Y4531D01*
G01X3911Y5185D02*
G01X3911Y4422D01*
G01X3911Y5185D02*
G01X4238Y5185D01*
G01X4347Y5149D01*
G01X4384Y5113D01*
G01X4420Y5040D01*
G01X4420Y4931D01*
G01X4384Y4858D01*
G01X4347Y4822D01*
G01X4238Y4785D01*
G01X3911Y4785D01*
G01X4660Y5040D02*
G01X4733Y5076D01*
G01X4842Y5185D01*
G01X4842Y4422D01*
G01X5118Y5004D02*
G01X5118Y5040D01*
G01X5154Y5113D01*
G01X5191Y5149D01*
G01X5264Y5185D01*
G01X5409Y5185D01*
G01X5482Y5149D01*
G01X5518Y5113D01*
G01X5554Y5040D01*
G01X5554Y4967D01*
G01X5518Y4894D01*
G01X5445Y4785D01*
G01X5082Y4422D01*
G01X5591Y4422D01*
G01X5831Y5185D02*
G01X5831Y4422D01*
G01X5831Y5185D02*
G01X6304Y5185D01*
G01X5831Y4822D02*
G01X6122Y4822D01*
G01X5831Y4422D02*
G01X6304Y4422D01*
M00*
M02*
