G04 Layer: TopPasteMaskLayer*
G04 EasyEDA v6.4.7, 2021-05-23T18:21:04+05:00*
G04 4ba805003f7d4cf790364f2a1c8dc171,d3277c0307964fb6908111913dbd2705,10*
G04 Gerber Generator version 0.2*
G04 Scale: 100 percent, Rotated: No, Reflected: No *
G04 Dimensions in inches *
G04 leading zeros omitted , absolute positions ,2 integer and 4 decimal *
%FSLAX24Y24*%
%MOIN*%
G90*
D02*

%ADD14R,0.070866X0.053150*%
%ADD19R,0.027559X0.059055*%
%ADD20R,0.039370X0.031496*%

%LPD*%
G54D14*
G01X15200Y17233D03*
G01X15200Y18966D03*
G36*
G01X9105Y5642D02*
G01X10798Y5642D01*
G01X10798Y5257D01*
G01X9105Y5257D01*
G01X9105Y5642D01*
G37*
G36*
G01X9105Y3642D02*
G01X10798Y3642D01*
G01X10798Y3257D01*
G01X9105Y3257D01*
G01X9105Y3642D01*
G37*
G36*
G01X16330Y6530D02*
G01X16330Y2369D01*
G01X13365Y2369D01*
G01X13365Y6530D01*
G01X16330Y6530D01*
G37*
G36*
G01X9105Y10192D02*
G01X10798Y10192D01*
G01X10798Y9807D01*
G01X9105Y9807D01*
G01X9105Y10192D01*
G37*
G36*
G01X9105Y8192D02*
G01X10798Y8192D01*
G01X10798Y7807D01*
G01X9105Y7807D01*
G01X9105Y8192D01*
G37*
G36*
G01X16330Y11080D02*
G01X16330Y6919D01*
G01X13365Y6919D01*
G01X13365Y11080D01*
G01X16330Y11080D01*
G37*
G36*
G01X9105Y14692D02*
G01X10798Y14692D01*
G01X10798Y14307D01*
G01X9105Y14307D01*
G01X9105Y14692D01*
G37*
G36*
G01X9105Y12692D02*
G01X10798Y12692D01*
G01X10798Y12307D01*
G01X9105Y12307D01*
G01X9105Y12692D01*
G37*
G36*
G01X16330Y15580D02*
G01X16330Y11419D01*
G01X13365Y11419D01*
G01X13365Y15580D01*
G01X16330Y15580D01*
G37*
G54D19*
G01X15485Y21489D03*
G01X14304Y21489D03*
G01X13714Y21489D03*
G54D20*
G01X16036Y21844D03*
G01X13163Y21844D03*
G01X13163Y22710D03*
G01X16036Y22710D03*
G36*
G01X3840Y14051D02*
G01X3840Y14437D01*
G01X2919Y14437D01*
G01X2919Y14051D01*
G01X3840Y14051D01*
G37*
G36*
G01X3840Y14957D02*
G01X3840Y15342D01*
G01X2919Y15342D01*
G01X2919Y14957D01*
G01X3840Y14957D01*
G37*
G36*
G01X3840Y15862D02*
G01X3840Y16248D01*
G01X2919Y16248D01*
G01X2919Y15862D01*
G01X3840Y15862D01*
G37*
G36*
G01X1580Y15858D02*
G01X1580Y14441D01*
G01X659Y14441D01*
G01X659Y15858D01*
G01X1580Y15858D01*
G37*

%LPD*%
G36*
G01X7430Y16084D02*
G01X7033Y16084D01*
G01X6994Y16045D01*
G01X6994Y15903D01*
G01X7033Y15863D01*
G01X7116Y15863D01*
G01X7156Y15824D01*
G01X7156Y15675D01*
G01X7116Y15636D01*
G01X7033Y15636D01*
G01X6994Y15596D01*
G01X6994Y15454D01*
G01X7033Y15415D01*
G01X7430Y15415D01*
G01X7469Y15454D01*
G01X7469Y16045D01*
G01X7430Y16084D01*
G37*

%LPD*%
G36*
G01X6266Y16084D02*
G01X5869Y16084D01*
G01X5830Y16045D01*
G01X5830Y15454D01*
G01X5869Y15415D01*
G01X6266Y15415D01*
G01X6305Y15454D01*
G01X6305Y15596D01*
G01X6266Y15636D01*
G01X6183Y15636D01*
G01X6143Y15675D01*
G01X6143Y15824D01*
G01X6183Y15863D01*
G01X6266Y15863D01*
G01X6305Y15903D01*
G01X6305Y16045D01*
G01X6266Y16084D01*
G37*

%LPD*%
G36*
G01X4316Y12934D02*
G01X3919Y12934D01*
G01X3880Y12895D01*
G01X3880Y12304D01*
G01X3919Y12265D01*
G01X4316Y12265D01*
G01X4355Y12304D01*
G01X4355Y12446D01*
G01X4316Y12486D01*
G01X4233Y12486D01*
G01X4193Y12525D01*
G01X4193Y12674D01*
G01X4233Y12713D01*
G01X4316Y12713D01*
G01X4355Y12753D01*
G01X4355Y12895D01*
G01X4316Y12934D01*
G37*

%LPD*%
G36*
G01X5480Y12934D02*
G01X5083Y12934D01*
G01X5044Y12895D01*
G01X5044Y12753D01*
G01X5083Y12713D01*
G01X5166Y12713D01*
G01X5206Y12674D01*
G01X5206Y12525D01*
G01X5166Y12486D01*
G01X5083Y12486D01*
G01X5044Y12446D01*
G01X5044Y12304D01*
G01X5083Y12265D01*
G01X5480Y12265D01*
G01X5519Y12304D01*
G01X5519Y12895D01*
G01X5480Y12934D01*
G37*

%LPD*%
G36*
G01X7545Y14019D02*
G01X6954Y14019D01*
G01X6915Y13980D01*
G01X6915Y13583D01*
G01X6954Y13544D01*
G01X7096Y13544D01*
G01X7136Y13583D01*
G01X7136Y13666D01*
G01X7175Y13706D01*
G01X7324Y13706D01*
G01X7363Y13666D01*
G01X7363Y13583D01*
G01X7403Y13544D01*
G01X7545Y13544D01*
G01X7584Y13583D01*
G01X7584Y13980D01*
G01X7545Y14019D01*
G37*

%LPD*%
G36*
G01X7096Y12855D02*
G01X6954Y12855D01*
G01X6915Y12816D01*
G01X6915Y12419D01*
G01X6954Y12380D01*
G01X7545Y12380D01*
G01X7584Y12419D01*
G01X7584Y12816D01*
G01X7545Y12855D01*
G01X7403Y12855D01*
G01X7363Y12816D01*
G01X7363Y12733D01*
G01X7324Y12693D01*
G01X7175Y12693D01*
G01X7136Y12733D01*
G01X7136Y12816D01*
G01X7096Y12855D01*
G37*

%LPD*%
G36*
G01X2380Y12934D02*
G01X1983Y12934D01*
G01X1944Y12895D01*
G01X1944Y12753D01*
G01X1983Y12713D01*
G01X2066Y12713D01*
G01X2106Y12674D01*
G01X2106Y12525D01*
G01X2066Y12486D01*
G01X1983Y12486D01*
G01X1944Y12446D01*
G01X1944Y12304D01*
G01X1983Y12265D01*
G01X2380Y12265D01*
G01X2419Y12304D01*
G01X2419Y12895D01*
G01X2380Y12934D01*
G37*

%LPD*%
G36*
G01X1216Y12934D02*
G01X819Y12934D01*
G01X780Y12895D01*
G01X780Y12304D01*
G01X819Y12265D01*
G01X1216Y12265D01*
G01X1255Y12304D01*
G01X1255Y12446D01*
G01X1216Y12486D01*
G01X1133Y12486D01*
G01X1093Y12525D01*
G01X1093Y12674D01*
G01X1133Y12713D01*
G01X1216Y12713D01*
G01X1255Y12753D01*
G01X1255Y12895D01*
G01X1216Y12934D01*
G37*

%LPD*%
G36*
G01X806Y7961D02*
G01X688Y7961D01*
G01X688Y7331D01*
G01X806Y7331D01*
G01X806Y7410D01*
G01X1751Y7410D01*
G01X1751Y7883D01*
G01X806Y7883D01*
G01X806Y7961D01*
G37*

%LPD*%
G36*
G01X6554Y1706D02*
G01X6082Y1706D01*
G01X6082Y1237D01*
G01X6003Y1237D01*
G01X6003Y1119D01*
G01X6633Y1119D01*
G01X6633Y1237D01*
G01X6554Y1237D01*
G01X6554Y1706D01*
G37*

%LPD*%
G36*
G01X806Y7174D02*
G01X688Y7174D01*
G01X688Y6544D01*
G01X806Y6544D01*
G01X806Y6623D01*
G01X1751Y6623D01*
G01X1751Y7095D01*
G01X806Y7095D01*
G01X806Y7174D01*
G37*

%LPD*%
G36*
G01X806Y6386D02*
G01X688Y6386D01*
G01X688Y5757D01*
G01X806Y5757D01*
G01X806Y5835D01*
G01X1751Y5835D01*
G01X1751Y6308D01*
G01X806Y6308D01*
G01X806Y6386D01*
G37*

%LPD*%
G36*
G01X806Y5599D02*
G01X688Y5599D01*
G01X688Y4969D01*
G01X806Y4969D01*
G01X806Y5048D01*
G01X1751Y5048D01*
G01X1751Y5520D01*
G01X806Y5520D01*
G01X806Y5599D01*
G37*

%LPD*%
G36*
G01X806Y4812D02*
G01X688Y4812D01*
G01X688Y4182D01*
G01X806Y4182D01*
G01X806Y4261D01*
G01X1751Y4261D01*
G01X1751Y4733D01*
G01X806Y4733D01*
G01X806Y4812D01*
G37*

%LPD*%
G36*
G01X806Y4024D02*
G01X688Y4024D01*
G01X688Y3394D01*
G01X806Y3394D01*
G01X806Y3473D01*
G01X1751Y3473D01*
G01X1751Y3946D01*
G01X806Y3946D01*
G01X806Y4024D01*
G37*

%LPD*%
G36*
G01X806Y3237D02*
G01X688Y3237D01*
G01X688Y2607D01*
G01X806Y2607D01*
G01X806Y2686D01*
G01X1751Y2686D01*
G01X1751Y3158D01*
G01X806Y3158D01*
G01X806Y3237D01*
G37*

%LPD*%
G36*
G01X806Y2450D02*
G01X688Y2450D01*
G01X688Y1820D01*
G01X806Y1820D01*
G01X806Y1898D01*
G01X1751Y1898D01*
G01X1751Y2371D01*
G01X806Y2371D01*
G01X806Y2450D01*
G37*

%LPD*%
G36*
G01X8011Y7962D02*
G01X7893Y7962D01*
G01X7893Y7883D01*
G01X6948Y7883D01*
G01X6948Y7411D01*
G01X7893Y7411D01*
G01X7893Y7332D01*
G01X8011Y7332D01*
G01X8011Y7962D01*
G37*

%LPD*%
G36*
G01X8011Y7175D02*
G01X7893Y7175D01*
G01X7893Y7096D01*
G01X6948Y7096D01*
G01X6948Y6624D01*
G01X7893Y6624D01*
G01X7893Y6545D01*
G01X8011Y6545D01*
G01X8011Y7175D01*
G37*

%LPD*%
G36*
G01X8011Y6387D02*
G01X7893Y6387D01*
G01X7893Y6309D01*
G01X6948Y6309D01*
G01X6948Y5836D01*
G01X7893Y5836D01*
G01X7893Y5757D01*
G01X8011Y5757D01*
G01X8011Y6387D01*
G37*

%LPD*%
G36*
G01X8011Y5600D02*
G01X7893Y5600D01*
G01X7893Y5521D01*
G01X6948Y5521D01*
G01X6948Y5049D01*
G01X7893Y5049D01*
G01X7893Y4970D01*
G01X8011Y4970D01*
G01X8011Y5600D01*
G37*

%LPD*%
G36*
G01X8011Y4813D02*
G01X7893Y4813D01*
G01X7893Y4734D01*
G01X6948Y4734D01*
G01X6948Y4261D01*
G01X7893Y4261D01*
G01X7893Y4183D01*
G01X8011Y4183D01*
G01X8011Y4813D01*
G37*

%LPD*%
G36*
G01X8011Y4025D02*
G01X7893Y4025D01*
G01X7893Y3946D01*
G01X6948Y3946D01*
G01X6948Y3474D01*
G01X7893Y3474D01*
G01X7893Y3395D01*
G01X8011Y3395D01*
G01X8011Y4025D01*
G37*

%LPD*%
G36*
G01X8011Y3238D02*
G01X7893Y3238D01*
G01X7893Y3159D01*
G01X6948Y3159D01*
G01X6948Y2687D01*
G01X7893Y2687D01*
G01X7893Y2608D01*
G01X8011Y2608D01*
G01X8011Y3238D01*
G37*

%LPD*%
G36*
G01X8011Y2450D02*
G01X7893Y2450D01*
G01X7893Y2371D01*
G01X6948Y2371D01*
G01X6948Y1899D01*
G01X7893Y1899D01*
G01X7893Y1820D01*
G01X8011Y1820D01*
G01X8011Y2450D01*
G37*

%LPD*%
G36*
G01X5767Y1706D02*
G01X5294Y1706D01*
G01X5294Y1238D01*
G01X5216Y1238D01*
G01X5216Y1120D01*
G01X5846Y1120D01*
G01X5846Y1238D01*
G01X5767Y1238D01*
G01X5767Y1706D01*
G37*

%LPD*%
G36*
G01X4979Y1706D02*
G01X4507Y1706D01*
G01X4507Y1238D01*
G01X4428Y1238D01*
G01X4428Y1120D01*
G01X5058Y1120D01*
G01X5058Y1238D01*
G01X4979Y1238D01*
G01X4979Y1706D01*
G37*

%LPD*%
G36*
G01X4192Y1706D02*
G01X3720Y1706D01*
G01X3720Y1238D01*
G01X3641Y1238D01*
G01X3641Y1120D01*
G01X4271Y1120D01*
G01X4271Y1238D01*
G01X4192Y1238D01*
G01X4192Y1706D01*
G37*

%LPD*%
G36*
G01X3405Y1706D02*
G01X2932Y1706D01*
G01X2932Y1238D01*
G01X2853Y1238D01*
G01X2853Y1120D01*
G01X3483Y1120D01*
G01X3483Y1238D01*
G01X3405Y1238D01*
G01X3405Y1706D01*
G37*

%LPD*%
G36*
G01X2617Y1706D02*
G01X2145Y1706D01*
G01X2145Y1237D01*
G01X2066Y1237D01*
G01X2066Y1119D01*
G01X2696Y1119D01*
G01X2696Y1237D01*
G01X2617Y1237D01*
G01X2617Y1706D01*
G37*
M00*
M02*
