;Layer: Drill PTH
;EasyEDA v6.4.7, 2021-05-23T18:21:04+05:00
;4ba805003f7d4cf790364f2a1c8dc171,d3277c0307964fb6908111913dbd2705,10
;Gerber Generator version 0.2
M48
INCH,LZ,00.0000
;Holesize 1 = 0.012 INCH
T01C0.012
;Holesize 2 = 0.036 INCH
T02C0.036
;Holesize 3 = 0.043 INCH
T03C0.043
;Holesize 4 = 0.047 INCH
T04C0.047
%
G05
G90
T01
X+015350Y+016400
X+016200Y+021100
X+006350Y+016750
X+006750Y+005650
X+010350Y+006950
X+009600Y+006000
X+008550Y+003750
X+009250Y+011700
X+004250Y+014800
X+005450Y+015000
X+008100Y+008850
X+002150Y+005050
X+009750Y+009250
X+002150Y+004000
X+002150Y+003250
X+010150Y+016300
X+014650Y+020500
X+009900Y+004500
X+008050Y+013000
X+002100Y+006072
X+001900Y+006072
T02
X+006150Y+022100
X+007150Y+022100
X+008150Y+022100
X+009150Y+022100
X+010150Y+022100
X+011150Y+022100
T03
X+009000Y+001250
X+010000Y+001250
X+011000Y+001250
X+012000Y+001250
T04
X+002333Y+017979G85X+003317Y+017979
X+003317Y+020420G85X+002333Y+020420
X+000974Y+019652G85X+000974Y+018668
M30
