G04 Layer: BottomLayer*
G04 EasyEDA v6.4.7, 2021-05-23T18:21:04+05:00*
G04 4ba805003f7d4cf790364f2a1c8dc171,d3277c0307964fb6908111913dbd2705,10*
G04 Gerber Generator version 0.2*
G04 Scale: 100 percent, Rotated: No, Reflected: No *
G04 Dimensions in inches *
G04 leading zeros omitted , absolute positions ,2 integer and 4 decimal *
%FSLAX24Y24*%
%MOIN*%
G90*
D02*

%ADD10C,0.010000*%
%ADD11C,0.020000*%
%ADD12C,0.050000*%
%ADD13C,0.024000*%
%ADD26C,0.066929*%
%ADD27C,0.060000*%
%ADD28C,0.078740*%

%LPD*%
G54D11*
G01X1900Y6072D02*
G01X4287Y6072D01*
G01X14768Y16553D01*
G01X15350Y16400D02*
G01X15197Y16553D01*
G01X14768Y16553D01*
G01X6350Y16750D02*
G01X6450Y16850D01*
G01X9150Y16850D01*
G01X9550Y16450D01*
G01X9550Y15650D01*
G01X9650Y15550D01*
G01X11200Y15550D01*
G01X12600Y16950D01*
G01X12600Y20800D01*
G01X12900Y21100D01*
G01X15800Y21100D01*
G01X16200Y21100D01*
G54D10*
G01X5450Y15000D02*
G01X5250Y14800D01*
G01X4250Y14800D01*
G54D11*
G01X10350Y6950D02*
G01X8050Y6950D01*
G01X6750Y5650D01*
G54D10*
G01X9600Y6000D02*
G01X8700Y5100D01*
G01X4000Y5100D01*
G01X2150Y3250D01*
G01X9900Y4500D02*
G01X9150Y3750D01*
G01X8550Y3750D01*
G54D12*
G01X2825Y20420D02*
G01X5250Y17995D01*
G01X5250Y15700D01*
G01X5950Y15700D01*
G01X6550Y15100D01*
G01X6650Y15000D01*
G01X6650Y12550D01*
G01X7500Y11700D01*
G01X9250Y11700D01*
G54D10*
G01X8100Y8850D02*
G01X5050Y5800D01*
G01X2900Y5800D01*
G01X2150Y5050D01*
G01X2150Y3950D02*
G01X3650Y5450D01*
G01X5400Y5450D01*
G01X9150Y9200D01*
G01X9750Y9200D01*
G54D12*
G01X10150Y16300D02*
G01X10150Y22100D01*
G01X9900Y4500D02*
G01X16850Y11450D01*
G01X16850Y20100D01*
G01X16450Y20500D01*
G01X14650Y20500D01*
G01X9000Y1250D02*
G01X2900Y1250D01*
G01X800Y3350D01*
G01X800Y15954D01*
G01X2825Y17979D01*
G54D11*
G01X11933Y13718D02*
G01X8768Y13718D01*
G01X8050Y13000D01*
G36*
G01X-868Y50295D02*
G01X-868Y51004D01*
G01X-1399Y51004D01*
G01X-1399Y50295D01*
G01X-868Y50295D01*
G37*
G36*
G01X-2600Y50295D02*
G01X-2600Y51004D01*
G01X-3131Y51004D01*
G01X-3131Y50295D01*
G01X-2600Y50295D01*
G37*
G36*
G01X8665Y1584D02*
G01X9334Y1584D01*
G01X9334Y915D01*
G01X8665Y915D01*
G01X8665Y1584D01*
G37*
G54D26*
G01X10000Y1250D03*
G01X11000Y1250D03*
G01X12000Y1250D03*
G54D13*
G01X15350Y16400D03*
G01X16200Y21100D03*
G01X6350Y16750D03*
G01X6750Y5650D03*
G01X10350Y6950D03*
G01X9600Y6000D03*
G01X8550Y3750D03*
G01X9250Y11700D03*
G01X4250Y14800D03*
G01X5450Y15000D03*
G01X8100Y8850D03*
G01X2150Y5050D03*
G01X9750Y9250D03*
G01X2150Y4000D03*
G01X2150Y3250D03*
G01X10150Y16300D03*
G01X14650Y20500D03*
G01X9900Y4500D03*
G01X8050Y13000D03*
G01X2100Y6072D03*
G01X1900Y6072D03*
G54D27*
G01X6150Y22193D02*
G01X6150Y22006D01*
G01X7150Y22193D02*
G01X7150Y22006D01*
G01X8150Y22193D02*
G01X8150Y22006D01*
G01X9150Y22193D02*
G01X9150Y22006D01*
G01X10150Y22193D02*
G01X10150Y22006D01*
G01X11150Y22193D02*
G01X11150Y22006D01*
G54D28*
G01X3337Y17979D02*
G01X2313Y17979D01*
G01X2313Y20420D02*
G01X3337Y20420D01*
G01X974Y18648D02*
G01X974Y19672D01*
M00*
M02*
